<svg xmlns="http://www.w3.org/2000/svg" viewBox="0 0 205 40"><g fill="none" fill-rule="evenodd"><path fill="#331E11" d="M61.26 19.64c0-3.307-1.439-5.707-4.106-5.707-2.64 0-3.813 2.374-3.813 5.707 0 3.332 1.173 5.706 3.813 5.706 2.667 0 4.106-2.373 4.106-5.706m1.546-3.066c0 4.212.027 7.892.081 9.732h-1.653l.079-3.146c-.746 2.106-2.213 3.439-4.506 3.439-3.466 0-5.227-2.986-5.227-6.96 0-3.945 1.761-6.932 5.227-6.932 2.186 0 3.653 1.226 4.399 3.2 0-3.6-.026-6.693-.106-8.266h1.787c-.054 1.68-.081 5.066-.081 8.933m5.175 1.68h7.52c-.187-2.748-1.44-4.428-3.627-4.428-2.241 0-3.546 1.893-3.893 4.427zm-.106 1.12v.292c0 3.44 1.439 5.76 4.292 5.76 1.76 0 2.827-.934 3.574-2.4l1.359.747c-1.066 1.892-2.773 2.905-4.986 2.905-3.893 0-5.946-2.959-5.946-7.012 0-4.053 2.292-7.04 5.706-7.04 3.493 0 5.573 3.013 5.253 6.747h-9.252zm25.57-6.401c-.079 1.494-.106 4.106-.106 6.667 0 2.559.027 5.172.106 6.666H91.66c.054-1.494.08-4.107.08-6.666 0-2.561-.026-5.173-.08-6.667h1.786zm-1.04-4.879c.081 0 .134 0 .187.026-.425-.693-1.438-1.146-2.584-1.146-2.109 0-3.682 1.653-3.682 3.893 0 1.759.96 2.667 1.6 3.706 0 .027.027.053.027.08l-1.2.933c-.48-1.066-1.52-1.706-2.88-1.706-1.574 0-2.586.933-2.586 2.159 0 1.494 1.094 2 2.612 2.454l.855.24c2.212.64 3.785 1.627 3.785 3.947 0 2.346-1.92 3.945-4.559 3.945-2.267 0-4.08-1.013-4.827-2.852l1.28-.907c.4 1.44 1.84 2.533 3.574 2.533 1.84 0 2.96-1.093 2.96-2.56 0-1.546-1.067-2.213-2.774-2.72l-.853-.24c-2.08-.586-3.6-1.599-3.6-3.679 0-2.027 1.68-3.547 4.16-3.547.88 0 1.626.16 2.24.427-.294-.667-.427-1.44-.427-2.16 0-2.613 1.893-4.48 4.32-4.48 2.08 0 3.706 1.281 3.706 2.667 0 .773-.56 1.226-1.173 1.226-.667 0-1.2-.48-1.2-1.146 0-.64.507-1.093 1.04-1.093zm9.468 12.372c1.973 0 3.253-1.36 3.253-3.387 0-2.026-1.306-3.36-3.279-3.36-2 0-3.28 1.307-3.28 3.36 0 2.054 1.306 3.387 3.306 3.387m6.026 6.266c0 2.08-2.027 4.4-6.08 4.4-3.119 0-5.278-1.387-5.439-3.573l1.547-.534c-.08 1.467 1.253 3.013 4.026 3.013 2.693 0 4.32-1.519 4.32-2.932 0-1.014-.64-1.467-2.427-1.467h-2.773c-2.48 0-3.493-.8-3.493-1.893 0-1.04.8-2 2.481-2.453-1.894-.587-3.174-2.134-3.174-4.214 0-2.666 2.052-4.479 4.986-4.479 1.014 0 1.92.24 2.693.64.506-1.173 1.786-2.133 3.413-2.053l.213 1.413c-.16-.027-.425-.08-.613-.08-.96 0-1.839.533-2.319 1.2.986.8 1.573 1.973 1.573 3.36 0 2.613-2.106 4.48-4.96 4.48-1.493 0-2.773.746-2.773 1.652 0 .72.667.987 2.32.987h2.613c2.773 0 3.866.987 3.866 2.533m11.067-.426c.026-1.466.08-5.12.08-8.692 0-2.373-1.173-3.574-2.934-3.574-1.839 0-3.759 1.467-3.759 5.733 0 1.973.027 5.04.081 6.533h-1.787c.08-1.493.106-4.533.106-7.44 0-2.426-.026-4.612-.106-5.893h1.653l-.054 3.254c.721-2.533 2.48-3.52 4.347-3.52 2.692 0 4.079 2 4.079 4.666 0 1.28-.026 3.173-.026 4.907 0 1.547.026 2.933.08 4.026h-1.76zM129.42 23.773l1.28-.907c.4 1.44 1.84 2.533 3.573 2.533 1.839 0 2.959-1.093 2.959-2.56 0-1.546-1.066-2.212-2.772-2.719l-.853-.24c-2.081-.587-3.6-1.6-3.6-3.68 0-2.027 1.68-3.547 4.159-3.547 2.16 0 3.493.987 4.054 2l-1.2.933c-.481-1.066-1.52-1.706-2.881-1.706-1.573 0-2.586.934-2.586 2.16 0 1.493 1.094 2 2.613 2.453l.854.24c2.212.64 3.786 1.627 3.786 3.947 0 2.346-1.92 3.946-4.56 3.946-2.266 0-4.08-1.014-4.826-2.853m22.186-10.8c-.64 1.521-1.493 3.894-3.013 8.186l-2.373 6.693c-.8 2.293-1.76 3.307-3.546 3.307-.773 0-1.494-.16-2.08-.507l.586-1.333c.347.32.88.533 1.52.533.933 0 1.654-.56 2.24-2.213l.374-1.067c-.827-2.32-1.707-4.586-2.613-6.906-.988-2.666-1.974-5.226-2.64-6.693h1.813c.506 1.6 1.466 4.08 2.453 6.693.587 1.573 1.146 3.093 1.787 4.666l1.173-3.386c1.386-3.92 2.24-6.533 2.719-7.973h1.6zm1.147 10.8l1.28-.907c.4 1.44 1.84 2.533 3.573 2.533 1.84 0 2.96-1.093 2.96-2.56 0-1.546-1.066-2.212-2.773-2.719l-.853-.24c-2.08-.587-3.6-1.6-3.6-3.68 0-2.027 1.68-3.547 4.16-3.547 2.16 0 3.493.987 4.053 2l-1.2.933c-.48-1.066-1.52-1.706-2.88-1.706-1.574 0-2.587.934-2.587 2.16 0 1.493 1.094 2 2.613 2.453l.854.24c2.212.64 3.786 1.627 3.786 3.947 0 2.346-1.92 3.946-4.559 3.946-2.267 0-4.08-1.014-4.827-2.853m18.452 2.32c-.506.32-1.306.479-2.159.479-2.054 0-3.12-.906-3.12-3.146 0-2.293.053-4.719.053-7.279V14.12h-2.4v-1.147h2.427c.027-1.599.027-3.359 0-4.159l1.653-.32c-.026.987-.026 2.746-.054 4.479h3.361v1.147h-3.36c0 2.88-.053 6.4-.053 9.013 0 1.839.773 2.16 1.732 2.16.614 0 1.174-.16 1.601-.453l.32 1.253zm3.334-7.84h7.52c-.186-2.746-1.44-4.426-3.626-4.426-2.24 0-3.547 1.893-3.894 4.427zm-.106 1.12v.294c0 3.44 1.44 5.759 4.293 5.759 1.76 0 2.826-.933 3.573-2.4l1.36.748c-1.067 1.892-2.773 2.905-4.986 2.905-3.894 0-5.946-2.96-5.946-7.012 0-4.053 2.292-7.04 5.706-7.04 3.493 0 5.573 3.013 5.252 6.747h-9.252zm28.053 6.933c.053-1.573.08-5.306.08-8.853 0-2.293-1.04-3.413-2.56-3.413-1.626 0-3.332 1.254-3.52 4.853-.026 1.067-.026 2.267-.026 3.387 0 1.547.026 2.933.08 4.026h-1.761c.027-1.573.08-5.306.08-8.853 0-2.32-1.093-3.413-2.612-3.413-1.734 0-3.493 1.44-3.493 5.547 0 1.76.026 4.826.08 6.719h-1.787c.08-1.653.106-4.533.106-7.44 0-2.426-.025-4.612-.106-5.893h1.653l-.08 3.228c.613-2.427 2.24-3.494 4.106-3.494 2.08 0 3.307 1.28 3.654 3.2.772-2.24 2.32-3.173 4.053-3.173 2.452 0 3.785 1.813 3.785 4.399 0 1.36-.025 3.334-.025 5.147 0 1.547.024 2.933.078 4.026h-1.785z"/><path fill="#0054F0" d="M40.608 19.999C40.608 31.048 31.517 40 20.302 40 9.089 40 0 31.048 0 19.999 0 8.955 9.089 0 20.302 0c11.215 0 20.306 8.955 20.306 19.999"/><path fill="#FFF" d="M17.694 14.59c-.026.09.031.207.157.207l1.729-.024-2.797 11.208c-.59 2.37-1.543 4.781-2.222 5.635-.607.765-1.012 1.002-1.425 1.002-.575 0-.874-.415-1.038-1.099-.11-.494-.431-1.17-1.144-1.17-.739 0-1.755.84-1.755 1.854 0 1.371 2.29 1.68 3.057 1.68 1.509 0 3.46-.96 4.776-2.468 1.673-1.892 2.601-4.263 3.471-7.603l2.123-9.054 2.224.04c.181 0 .261-.127.294-.22l.288-.829c.033-.096-.018-.214-.159-.214h-2.297c.549-1.92 1.373-4.756 2.936-6.319.136-.138.526-.472.883-.476.624-.005.798.351 1.058.927.255.567.212 1.541 1.073 1.541.995 0 1.743-1.112 1.743-1.879 0-1.042-1.807-1.716-3.249-1.716-1.7 0-3.32.725-4.498 1.904-1.694 1.721-2.471 4.264-2.991 6.02l-1.73-.025c-.118 0-.217.101-.243.187l-.264.89zm8.933 9.449c-.02.45-.277 1.734-1.698 1.734-.832 0-1.418-.54-1.376-1.487.04-.968.73-1.757 1.678-1.78.674 0 1.446.429 1.396 1.533m4.948 0c-.02.45-.277 1.734-1.697 1.734-.833 0-1.42-.54-1.378-1.487.042-.968.73-1.757 1.679-1.78.674 0 1.446.429 1.396 1.533m4.95 0c-.019.45-.278 1.734-1.699 1.734-.832 0-1.418-.54-1.377-1.487.042-.968.731-1.757 1.68-1.78.673 0 1.445.429 1.396 1.533M15.212 7.279c-1.01.024-1.758.863-1.822 1.896-.06 1.008.553 1.585 1.441 1.585 1.512 0 1.811-1.369 1.843-1.85.07-1.176-.742-1.63-1.463-1.63"/><path fill="#FFF" d="M12.746 20.545l1.589-3.835c.328-.769.722-1.762.722-2.419 0-.85-.646-1.057-1.111-1.057-2.137 0-4.431 2.498-5.318 3.502-.063.075-.106.198.025.324l.402.383a.21.21 0 00.295-.018S10.403 16.28 10.787 16c.103-.079.268-.185.362-.185.137 0 .204.204.204.314 0 .356-.358 1.206-.523 1.644L9.183 21.94c-.576 1.397-.845 2.14-.845 2.77 0 .711.398 1.274 1.386 1.274 2.287 0 5.172-3.445 5.172-3.445.114-.128.057-.253-.012-.318l-.427-.408a.211.211 0 00-.306.012s-1.545 1.72-2.07 1.72c-.237 0-.231-.292-.231-.339 0-.253.156-.715.237-.935l.659-1.726z"/></g></svg>
